<svg xmlns="http://www.w3.org/2000/svg" xmlns:xlink="http://www.w3.org/1999/xlink" width="500" zoomAndPan="magnify" viewBox="0 0 375 374.999991" height="500" preserveAspectRatio="xMidYMid meet" version="1.0"><defs><clipPath id="9640857ed1"><path d="M 29.0625 0 L 374.8125 0 L 374.8125 375 L 29.0625 375 Z M 29.0625 0 " clip-rule="nonzero"/></clipPath></defs><rect x="-37.5" width="450" fill="#ffffff" y="-37.499999" height="449.999989" fill-opacity="1"/><rect x="-37.5" width="450" fill="#ffffff" y="-37.499999" height="449.999989" fill-opacity="1"/><g clip-path="url(#9640857ed1)"><path fill="#d44246" d="M 186.675781 311.6875 C 186.535156 311.96875 186.5625 312.242188 186.777344 312.480469 C 187.34375 313.136719 187.882812 313.816406 188.496094 314.429688 C 191.363281 317.371094 194.175781 320.382812 197.128906 323.226562 C 207.609375 333.269531 217.097656 344.253906 226.742188 355.070312 C 229.242188 357.867188 231.484375 360.878906 233.757812 363.863281 C 235.363281 365.996094 237.039062 368.070312 238.683594 370.175781 C 238.882812 370.429688 239.054688 370.871094 239.507812 370.699219 C 239.835938 370.585938 239.75 370.214844 239.765625 369.945312 C 239.921875 367.503906 240.046875 365.042969 240.234375 362.601562 C 240.816406 354.683594 241.539062 346.800781 243.089844 338.996094 C 245.046875 329.121094 248.144531 319.617188 252.105469 310.394531 C 254.746094 304.226562 257.503906 298.117188 260.925781 292.332031 C 263.3125 288.296875 265.9375 284.402344 268.59375 280.554688 C 269.21875 279.644531 269.632812 278.707031 269.800781 277.597656 C 270.554688 272.679688 271.421875 267.777344 272.203125 262.863281 C 273.765625 252.957031 275.710938 243.125 278.421875 233.476562 C 278.847656 231.941406 278.523438 231.089844 277.359375 230.179688 C 274.503906 227.933594 271.277344 226.597656 267.699219 226.15625 C 264.675781 225.789062 261.648438 225.84375 258.652344 226.46875 C 257.035156 226.8125 255.402344 227.125 253.796875 227.550781 C 245.332031 229.796875 238.769531 234.667969 233.929688 241.917969 C 232.367188 244.261719 230.972656 246.703125 229.753906 249.234375 C 228.617188 251.59375 227.765625 254.023438 227.394531 256.625 C 227.339844 256.980469 227.28125 257.332031 227.222656 257.6875 C 227.125 258.300781 226.839844 258.796875 226.230469 258.96875 C 225.464844 259.179688 225.007812 258.699219 224.640625 258.128906 C 224.328125 257.648438 224.027344 257.148438 223.746094 256.652344 C 222.59375 254.578125 221.445312 252.488281 220.292969 250.398438 C 218.902344 247.871094 217.480469 245.371094 215.863281 242.96875 C 212.738281 238.351562 208.703125 234.710938 203.933594 231.855469 C 198.550781 228.628906 192.855469 227.992188 186.863281 229.722656 C 182.417969 231.003906 178.554688 233.320312 175.058594 236.332031 C 174.238281 237.042969 174.222656 237.15625 174.605469 238.195312 C 175.371094 240.210938 176.195312 242.214844 176.90625 244.261719 C 178.667969 249.332031 179.476562 254.605469 180.015625 259.921875 C 180.769531 267.410156 180.699219 274.910156 180.398438 282.414062 C 180.242188 286.378906 179.71875 290.316406 179.347656 294.265625 C 179.304688 294.761719 179.207031 295.273438 179.035156 295.742188 C 178.765625 296.4375 177.714844 296.636719 177.21875 296.085938 C 176.59375 295.386719 176.054688 294.621094 175.445312 293.910156 C 172.914062 290.941406 170.5 287.898438 168.269531 284.6875 C 164.777344 279.644531 162.460938 274.085938 161.296875 268.0625 C 160.121094 261.953125 160.617188 256 162.890625 250.214844 C 164.722656 245.539062 167.164062 241.21875 170.628906 237.554688 C 171.28125 236.871094 171.410156 236.316406 170.96875 235.464844 C 166.894531 227.378906 162.179688 219.71875 156.042969 213.027344 C 153.730469 210.5 151.085938 208.4375 147.917969 207.046875 C 144.242188 205.425781 140.464844 204.914062 136.515625 205.710938 C 134.613281 206.09375 132.695312 206.449219 130.792969 206.816406 C 127.214844 207.515625 123.761719 207.128906 120.46875 205.523438 C 119.175781 204.898438 117.898438 204.203125 116.632812 203.519531 C 115.679688 203.011719 114.757812 202.441406 113.835938 201.886719 C 110.554688 199.96875 106.976562 199.699219 103.355469 200.351562 C 99.476562 201.050781 96.480469 203.222656 94.378906 206.578125 C 93.808594 207.484375 93.355469 208.480469 92.84375 209.433594 C 92.53125 210 92.203125 210.570312 91.851562 211.09375 C 91.453125 211.664062 90.914062 212.019531 90.1875 211.820312 C 89.5625 211.648438 89.265625 211.167969 89.152344 210.554688 C 89.125 210.414062 89.09375 210.269531 89.082031 210.128906 C 88.511719 205.285156 88.5 200.496094 90.019531 195.777344 C 91.167969 192.226562 93.214844 189.355469 96.222656 187.152344 C 100.980469 183.699219 106.308594 181.625 112.089844 180.671875 C 114.515625 180.273438 116.960938 180.175781 119.417969 180.203125 C 122.15625 180.230469 124.898438 180.273438 127.640625 180.300781 C 129.597656 180.316406 131.53125 180.0625 133.390625 179.4375 C 134.144531 179.179688 134.882812 178.882812 135.578125 178.511719 C 138.957031 176.75 140.691406 174.007812 140.664062 170.144531 C 140.621094 166.136719 139.796875 162.269531 138.730469 158.449219 C 138.050781 156.019531 137.070312 153.6875 136.132812 151.34375 C 135.324219 149.339844 134.484375 147.351562 134.015625 145.21875 C 133.574219 143.214844 133.5625 141.226562 134.074219 139.222656 C 134.65625 136.976562 135.5625 134.859375 136.488281 132.742188 C 137.183594 131.164062 137.894531 129.589844 138.601562 128.011719 C 141.332031 121.972656 141.558594 115.734375 139.980469 109.394531 C 138.546875 103.625 136.117188 98.242188 133.519531 92.925781 C 132.054688 89.941406 130.410156 87.070312 128.734375 84.203125 C 126.589844 80.535156 124.527344 76.8125 122.695312 72.960938 C 121.546875 70.546875 120.566406 68.058594 120.097656 65.417969 C 119.53125 62.246094 119.574219 59.09375 120.453125 55.980469 C 121.019531 53.949219 121.972656 52.101562 123.238281 50.398438 C 126.234375 46.347656 130.265625 44.585938 135.25 44.941406 C 140.847656 45.339844 145.917969 47.300781 150.660156 50.167969 C 152.875 51.519531 154.964844 53.082031 156.953125 54.746094 C 157.335938 55.058594 157.632812 55.496094 158.171875 55.597656 C 158.386719 55.339844 158.316406 55.058594 158.246094 54.789062 C 157.492188 51.960938 155.875 49.714844 153.5 48.007812 C 150.574219 45.890625 147.480469 44.042969 144.214844 42.496094 C 137.410156 39.257812 130.324219 36.898438 122.882812 35.605469 C 119.117188 34.949219 115.367188 34.238281 111.519531 34.269531 C 106.007812 34.3125 100.824219 35.546875 95.882812 37.976562 C 88.710938 41.5 82.71875 46.515625 77.519531 52.515625 C 71.683594 59.234375 67.222656 66.765625 64.738281 75.363281 C 64 77.921875 63.402344 80.519531 62.734375 83.109375 C 61.429688 88.152344 59.667969 93.011719 57.039062 97.542969 C 55.109375 100.871094 52.851562 103.925781 50.167969 106.695312 C 48.25 108.671875 46.546875 110.816406 45.082031 113.132812 C 44.457031 114.113281 43.945312 115.121094 43.664062 116.273438 C 43.265625 117.949219 43.433594 119.585938 43.945312 121.175781 C 44.472656 122.824219 45.125 124.429688 45.691406 126.0625 C 46.175781 127.429688 46.703125 128.765625 47.085938 130.15625 C 47.851562 133.011719 47.640625 135.882812 46.914062 138.710938 C 45.722656 143.386719 43.675781 147.648438 40.582031 151.371094 C 39.613281 152.535156 38.605469 153.671875 37.640625 154.839844 C 35.792969 157.070312 34.304688 159.527344 33.125 162.183594 C 31.492188 165.894531 31.164062 169.660156 32.328125 173.582031 C 32.925781 175.597656 33.648438 177.546875 34.617188 179.40625 C 35.085938 180.300781 35.539062 181.199219 36.035156 182.078125 C 38.28125 186 38.578125 190.105469 37.371094 194.414062 C 36.832031 196.359375 36.105469 198.234375 35.324219 200.109375 C 34.585938 201.914062 33.847656 203.707031 33.136719 205.523438 C 31.847656 208.820312 31.929688 212.132812 33.066406 215.472656 C 35.539062 222.746094 40.113281 228.304688 46.6875 232.226562 C 48.09375 233.0625 49.457031 234.058594 51.160156 234.285156 C 51.515625 234.328125 51.757812 234.667969 51.773438 235.082031 C 51.785156 235.492188 51.542969 235.792969 51.21875 235.949219 C 50.523438 236.289062 49.8125 236.21875 49.128906 235.878906 C 46.277344 234.484375 43.464844 233.019531 41.019531 230.945312 C 36.292969 226.925781 32.925781 222.007812 30.953125 216.097656 C 29.6875 212.332031 29.589844 208.609375 31.035156 204.886719 C 31.847656 202.8125 32.699219 200.738281 33.550781 198.675781 C 34.460938 196.472656 35.242188 194.242188 35.667969 191.882812 C 36.121094 189.382812 35.878906 186.996094 34.828125 184.695312 C 34.203125 183.316406 33.464844 181.992188 32.753906 180.65625 C 31.363281 178.027344 30.355469 175.273438 29.746094 172.359375 C 29.0625 169.089844 29.359375 165.90625 30.496094 162.78125 C 31.691406 159.5 33.449219 156.53125 35.636719 153.816406 C 36.675781 152.523438 37.78125 151.285156 38.832031 150.007812 C 41.644531 146.625 43.492188 142.761719 44.640625 138.527344 C 45.578125 135.058594 45.480469 131.691406 44.144531 128.351562 C 43.476562 126.675781 42.839844 125 42.242188 123.292969 C 41.914062 122.339844 41.660156 121.359375 41.433594 120.378906 C 40.765625 117.636719 41.347656 115.078125 42.753906 112.691406 C 43.820312 110.886719 45.054688 109.195312 46.402344 107.589844 C 46.957031 106.921875 47.523438 106.269531 48.136719 105.660156 C 54.15625 99.546875 57.992188 92.214844 60.179688 83.972656 C 60.890625 81.332031 61.5 78.660156 62.238281 76.015625 C 64.226562 68.941406 67.28125 62.390625 71.640625 56.4375 C 75.191406 51.574219 79.210938 47.171875 83.796875 43.277344 C 87.789062 39.894531 92.21875 37.210938 96.992188 35.09375 C 103.296875 32.292969 109.902344 31.625 116.675781 32.40625 C 121.121094 32.917969 125.507812 33.785156 129.828125 34.921875 C 138.09375 37.109375 145.929688 40.351562 153.089844 45.125 C 153.445312 45.367188 153.800781 45.621094 154.15625 45.847656 C 158.214844 48.550781 160.390625 52.386719 160.828125 57.175781 C 160.957031 58.554688 161.410156 59.632812 162.265625 60.671875 C 166.011719 65.1875 168.269531 70.476562 170.003906 76.015625 C 171.324219 80.207031 172.390625 84.484375 173.425781 88.75 C 173.597656 89.445312 173.78125 90.140625 173.964844 90.835938 C 174.777344 93.75 176.210938 96.265625 178.453125 98.339844 C 179.875 99.660156 181.179688 101.125 182.472656 102.574219 C 184.304688 104.621094 184.449219 106.140625 182.359375 108.445312 C 181.578125 109.308594 180.683594 110.035156 179.632812 110.546875 C 179.121094 110.800781 178.609375 111.085938 178.070312 111.285156 C 175.429688 112.238281 174.066406 114.253906 173.46875 116.871094 C 173.113281 118.417969 172.886719 119.980469 172.644531 121.558594 C 171.863281 126.71875 170.34375 131.675781 168.300781 136.464844 C 167.960938 137.261719 167.546875 138.027344 167.148438 138.78125 C 166.128906 140.714844 164.492188 141.808594 162.347656 142.050781 C 159.367188 142.40625 156.457031 142.050781 153.671875 140.828125 C 152.464844 140.300781 151.429688 139.519531 150.632812 138.453125 C 149.75 137.289062 149.382812 136.039062 149.9375 134.605469 C 150.164062 133.992188 150.335938 133.367188 150.546875 132.757812 C 152.109375 128.222656 152.324219 123.578125 151.585938 118.875 C 151.242188 116.742188 150.773438 114.625 150.320312 112.507812 C 149.808594 110.105469 149.398438 107.691406 149.285156 105.230469 C 149.113281 101.507812 149.75 97.898438 150.773438 94.347656 C 151.613281 91.433594 152.664062 88.59375 153.828125 85.792969 C 155.390625 82.070312 156.738281 78.277344 157.664062 74.324219 C 158.699219 69.863281 158.941406 65.34375 158.855469 60.785156 C 158.839844 60.085938 158.628906 59.519531 158.132812 59.035156 C 158.03125 58.9375 157.945312 58.824219 157.832031 58.722656 C 152.449219 53.265625 146.1875 49.332031 138.632812 47.613281 C 136.644531 47.15625 134.640625 47.085938 132.609375 47.183594 C 130.265625 47.300781 128.277344 48.222656 126.601562 49.8125 C 123.804688 52.457031 122.300781 55.726562 121.945312 59.535156 C 121.617188 62.972656 122.214844 66.285156 123.507812 69.480469 C 124.613281 72.222656 125.976562 74.851562 127.398438 77.4375 C 128.789062 79.96875 130.210938 82.46875 131.660156 84.96875 C 135.28125 91.222656 138.40625 97.714844 140.777344 104.550781 C 141.8125 107.546875 142.566406 110.617188 142.90625 113.800781 C 143.402344 118.40625 142.878906 122.882812 141.203125 127.1875 C 140.394531 129.261719 139.425781 131.277344 138.53125 133.324219 C 137.664062 135.300781 136.800781 137.289062 136.203125 139.378906 C 135.675781 141.226562 135.648438 143.058594 136.117188 144.933594 C 136.542969 146.625 137.167969 148.230469 137.820312 149.824219 C 139.34375 153.558594 140.820312 157.324219 141.65625 161.289062 C 142.296875 164.332031 142.792969 167.371094 142.75 170.511719 C 142.679688 174.519531 141.019531 177.574219 137.679688 179.75 C 135.265625 181.324219 132.597656 182.136719 129.753906 182.335938 C 127.964844 182.460938 126.148438 182.417969 124.359375 182.417969 C 121.6875 182.417969 119.019531 182.261719 116.363281 182.390625 C 110.214844 182.703125 104.476562 184.4375 99.191406 187.664062 C 95.003906 190.222656 92.402344 193.800781 91.4375 198.605469 C 90.914062 201.234375 90.726562 203.890625 90.925781 206.5625 C 90.941406 206.789062 91.039062 206.988281 91.28125 206.988281 C 91.394531 206.988281 91.550781 206.859375 91.609375 206.761719 C 91.878906 206.335938 92.105469 205.878906 92.359375 205.453125 C 94.71875 201.644531 98.070312 199.117188 102.429688 198.207031 C 106.535156 197.339844 110.609375 197.597656 114.417969 199.671875 C 115.554688 200.296875 116.675781 200.949219 117.796875 201.617188 C 119.230469 202.46875 120.695312 203.222656 122.226562 203.847656 C 124.699219 204.855469 127.242188 205.113281 129.867188 204.644531 C 131.855469 204.273438 133.832031 203.890625 135.804688 203.492188 C 141.785156 202.300781 147.253906 203.621094 152.308594 206.890625 C 154.4375 208.265625 156.285156 210 157.976562 211.875 C 161.015625 215.257812 163.769531 218.882812 166.210938 222.71875 C 168.386719 226.113281 170.414062 229.609375 172.261719 233.207031 C 172.519531 233.703125 172.644531 234.3125 173.226562 234.640625 C 173.980469 234.371094 174.507812 233.746094 175.117188 233.277344 C 178.824219 230.433594 182.855469 228.304688 187.445312 227.222656 C 193.238281 225.84375 198.75 226.484375 203.976562 229.367188 C 209.699219 232.523438 214.398438 236.800781 217.992188 242.285156 C 220.09375 245.484375 221.898438 248.851562 223.730469 252.203125 C 224.140625 252.957031 224.582031 253.683594 225.007812 254.421875 C 225.621094 254.25 225.589844 253.753906 225.703125 253.398438 C 227.652344 247.101562 230.875 241.476562 235.136719 236.515625 C 240.433594 230.363281 247.179688 226.511719 255.132812 224.820312 C 257.175781 224.382812 259.222656 223.957031 261.308594 223.769531 C 267.714844 223.230469 273.664062 224.339844 278.777344 228.515625 C 278.933594 228.644531 279.148438 228.6875 279.316406 228.757812 C 279.855469 228.445312 279.855469 227.890625 280.011719 227.421875 C 282.300781 220.289062 284.613281 213.15625 287.257812 206.136719 C 289.570312 199.984375 292.085938 193.929688 295.464844 188.273438 C 298.023438 183.984375 300.933594 179.960938 304.496094 176.4375 C 307.722656 173.242188 311.441406 170.839844 315.703125 169.261719 C 318.429688 168.253906 321.257812 167.699219 324.152344 167.613281 C 325.589844 167.570312 327.035156 167.585938 328.484375 167.570312 C 328.839844 167.570312 329.210938 167.570312 329.566406 167.628906 C 330.828125 167.839844 331.453125 168.722656 331.128906 169.957031 C 330.957031 170.652344 330.660156 171.320312 330.375 171.976562 C 329.535156 173.964844 328.628906 175.925781 327.832031 177.945312 C 327.40625 179.007812 327.121094 180.132812 326.824219 181.253906 C 326.566406 182.164062 326.609375 183.117188 326.695312 184.054688 C 326.753906 184.621094 326.839844 185.304688 327.378906 185.558594 C 328.003906 185.84375 328.414062 185.21875 328.828125 184.835938 C 329.890625 183.839844 330.6875 182.632812 331.46875 181.425781 C 334.605469 176.578125 337.660156 171.691406 340.601562 166.71875 C 342.589844 163.363281 344.648438 160.066406 346.722656 156.769531 C 351.863281 148.613281 358.167969 141.394531 364.714844 134.375 C 366.589844 132.371094 368.421875 130.328125 370.226562 128.28125 C 370.792969 127.640625 371.261719 126.902344 371.714844 126.164062 C 372.398438 125.039062 372.46875 123.820312 371.929688 122.640625 C 370.625 119.8125 369.003906 117.167969 366.84375 114.910156 C 365.3125 113.316406 363.4375 112.566406 361.222656 112.621094 C 359.914062 112.648438 358.636719 112.878906 357.386719 113.21875 C 355.15625 113.816406 353.011719 114.683594 350.894531 115.605469 C 350.15625 115.933594 349.5625 116.445312 348.964844 116.96875 C 342.191406 122.824219 335.757812 129.035156 329.578125 135.5 C 325.886719 139.363281 322.164062 143.171875 318.0625 146.609375 C 315.6875 148.613281 313.21875 150.492188 310.621094 152.179688 C 309.597656 152.847656 308.53125 153.460938 307.367188 153.871094 C 306.8125 154.070312 306.257812 154.214844 305.675781 154.199219 C 304.171875 154.199219 303.289062 153.148438 303.53125 151.640625 C 303.660156 150.847656 303.929688 150.09375 304.355469 149.425781 C 304.9375 148.515625 305.535156 147.605469 306.1875 146.753906 C 310.648438 140.925781 315.960938 135.953125 321.683594 131.40625 C 329.820312 124.914062 338.441406 119.144531 347.828125 114.582031 C 348.339844 114.328125 348.867188 114.070312 349.304688 113.703125 C 350.753906 112.523438 352.175781 111.300781 353.609375 110.078125 C 354.519531 109.308594 355.085938 108.371094 355.328125 107.164062 C 356.050781 103.398438 357.402344 99.832031 358.921875 96.308594 C 360.554688 92.527344 361.617188 88.550781 362.457031 84.515625 C 363.367188 80.207031 364.347656 75.917969 364.96875 71.570312 C 365.46875 68.074219 365.949219 64.578125 366.09375 61.039062 C 366.335938 55.214844 365.582031 49.542969 363.933594 43.960938 C 361.859375 36.925781 358.976562 30.277344 354.730469 24.265625 C 350.042969 17.628906 344.207031 12.230469 337.175781 8.136719 C 329.523438 3.660156 321.242188 2.011719 312.4375 2.808594 C 304.910156 3.488281 297.679688 5.351562 290.679688 8.152344 C 289.34375 8.691406 287.996094 9.214844 286.632812 9.671875 C 282.597656 11.035156 278.578125 11.09375 274.558594 9.585938 C 273.820312 9.300781 273.070312 9.03125 272.300781 8.820312 C 270.613281 8.351562 270.144531 8.589844 269.417969 10.15625 C 269.390625 10.226562 269.347656 10.28125 269.320312 10.351562 C 268.113281 13.59375 266.863281 16.832031 266.265625 20.257812 C 265.699219 23.582031 265.742188 26.878906 267.019531 30.0625 C 268.511719 33.800781 271.09375 36.457031 274.945312 37.820312 C 276.578125 38.402344 278.253906 38.816406 279.957031 39.101562 C 281.304688 39.328125 282.65625 39.613281 283.976562 39.953125 C 285.453125 40.351562 286.800781 41.046875 287.980469 42.027344 C 290.039062 43.773438 290.890625 45.90625 290.140625 48.578125 C 289.8125 49.757812 289.527344 50.949219 289.230469 52.144531 C 288.960938 53.210938 288.890625 54.304688 289.160156 55.355469 C 289.628906 57.1875 290.695312 58.59375 292.410156 59.449219 C 293.320312 59.902344 294.285156 60.1875 295.308594 60.285156 C 296.53125 60.398438 297.753906 60.558594 298.972656 60.628906 C 304.496094 60.941406 308.902344 63.441406 312.335938 67.660156 C 315.519531 71.554688 317.265625 76.089844 318.003906 81.046875 C 318.089844 81.65625 317.933594 82.367188 318.6875 82.835938 C 318.914062 81.898438 319.097656 81.003906 319.339844 80.109375 C 320.375 76.371094 322.378906 73.289062 325.515625 70.972656 C 326.269531 70.417969 327.078125 69.933594 327.960938 69.59375 C 330.347656 68.699219 332.40625 69.339844 333.824219 71.441406 C 335.117188 73.359375 335.515625 75.5625 335.699219 77.808594 C 335.855469 79.683594 335.726562 81.542969 335.34375 83.40625 C 334.550781 87.269531 333.058594 90.835938 330.914062 94.132812 C 330.601562 94.617188 330.230469 95.070312 329.847656 95.5 C 327.890625 97.699219 325.628906 99.222656 322.476562 98.710938 C 322.023438 98.640625 321.769531 98.894531 321.824219 99.320312 C 322.023438 100.671875 322.25 102.019531 322.519531 103.371094 C 322.902344 105.203125 323.300781 107.035156 323.742188 108.855469 C 324.75 113.046875 323.914062 116.855469 321.441406 120.351562 C 318.34375 124.714844 314.609375 128.378906 309.851562 130.867188 C 302.765625 134.574219 295.179688 136.378906 287.1875 136.4375 C 285.453125 136.449219 283.734375 136.152344 282.074219 135.667969 C 278.863281 134.730469 276.734375 132.644531 275.609375 129.503906 C 274.800781 127.242188 274.589844 124.855469 274.320312 122.496094 C 273.792969 118.0625 273.425781 113.601562 272.644531 109.195312 C 272.214844 106.796875 271.082031 105.0625 268.921875 103.96875 C 267.898438 103.441406 266.875 102.886719 265.882812 102.304688 C 264.832031 101.679688 263.78125 101.039062 262.785156 100.34375 C 260.726562 98.894531 260.074219 96.863281 260.585938 94.445312 C 260.941406 92.757812 261.367188 91.066406 262.035156 89.472656 C 262.972656 87.214844 263.808594 84.898438 264.917969 82.722656 C 267.714844 77.253906 269.148438 71.398438 269.988281 65.375 C 270.824219 59.378906 271.476562 53.351562 272.570312 47.382812 C 272.957031 45.253906 273.382812 43.136719 273.765625 41.003906 C 273.933594 40.082031 273.835938 39.894531 272.984375 39.484375 C 270.796875 38.445312 268.90625 37.054688 267.386719 35.148438 C 264.660156 31.710938 263.625 27.746094 263.722656 23.425781 C 263.765625 21.550781 264.035156 19.6875 264.503906 17.871094 C 265.230469 15.070312 266.167969 12.34375 267.246094 9.671875 C 268.511719 6.546875 269.957031 5.878906 273.183594 6.859375 C 273.933594 7.085938 274.6875 7.339844 275.441406 7.609375 C 278.90625 8.902344 282.371094 8.777344 285.835938 7.667969 C 286.929688 7.3125 288.007812 6.902344 289.074219 6.472656 C 295.097656 3.988281 301.300781 2.140625 307.75 1.203125 C 313.488281 0.363281 319.253906 0.078125 324.976562 1.230469 C 332.320312 2.707031 338.824219 6.035156 344.691406 10.652344 C 354.644531 18.480469 361.222656 28.613281 365.125 40.5625 C 366.320312 44.199219 367.300781 47.882812 367.824219 51.691406 C 368.4375 56.082031 368.421875 60.472656 368.011719 64.863281 C 367.269531 72.777344 365.652344 80.535156 363.804688 88.265625 C 362.941406 91.917969 361.761719 95.484375 360.226562 98.910156 C 359.105469 101.410156 358.222656 104.011719 357.683594 106.710938 C 357.527344 107.492188 357.34375 108.257812 357.074219 108.996094 C 356.804688 109.722656 356.40625 110.390625 356.082031 111.042969 C 356.320312 111.328125 356.535156 111.1875 356.734375 111.15625 C 357.445312 111.015625 358.140625 110.832031 358.847656 110.703125 C 363.109375 109.964844 366.6875 111.085938 369.414062 114.566406 C 371.121094 116.726562 372.582031 119.03125 373.777344 121.515625 C 374.8125 123.648438 374.671875 125.707031 373.390625 127.683594 C 372.851562 128.535156 372.257812 129.359375 371.601562 130.113281 C 370.28125 131.648438 368.960938 133.167969 367.554688 134.617188 C 364.261719 138.058594 361.121094 141.636719 357.996094 145.234375 C 353.878906 149.992188 350.300781 155.152344 346.976562 160.464844 C 344.875 163.832031 342.902344 167.273438 340.828125 170.640625 C 338.328125 174.691406 335.800781 178.726562 333.242188 182.730469 C 332.546875 183.828125 331.738281 184.851562 330.929688 185.859375 C 330.386719 186.539062 329.734375 187.125 328.984375 187.550781 C 327.347656 188.488281 325.859375 188.03125 325.035156 186.328125 C 324.695312 185.601562 324.496094 184.851562 324.4375 184.039062 C 324.324219 182.292969 324.59375 180.585938 325.121094 178.925781 C 325.859375 176.578125 326.894531 174.363281 327.890625 172.117188 C 328.984375 169.644531 329.082031 169.859375 326.3125 169.816406 C 317.777344 169.671875 310.746094 172.96875 304.980469 179.109375 C 300.90625 183.457031 297.679688 188.402344 294.996094 193.703125 C 292.339844 198.917969 290.195312 204.34375 288.222656 209.84375 C 285.964844 216.152344 283.832031 222.503906 281.875 228.929688 C 281.773438 229.269531 281.703125 229.640625 281.5625 229.964844 C 281.222656 230.734375 281.460938 231.316406 281.929688 231.941406 C 283.761719 234.386719 285.097656 237.085938 286.132812 239.957031 C 287.03125 242.398438 287.667969 244.914062 287.953125 247.515625 C 288.335938 251.097656 287.738281 254.5625 286.589844 257.945312 C 285.652344 260.6875 284.316406 263.246094 282.699219 265.648438 C 281.136719 267.992188 279.347656 270.164062 277.570312 272.339844 C 272.613281 278.363281 268.082031 284.6875 263.964844 291.308594 C 260.03125 297.632812 256.949219 304.398438 254.007812 311.21875 C 250.046875 320.453125 246.953125 329.960938 245.035156 339.835938 C 244.152344 344.367188 243.542969 348.945312 243.089844 353.535156 C 242.476562 359.628906 242.109375 365.753906 241.738281 371.878906 C 241.710938 372.449219 241.625 373.03125 241.441406 373.570312 C 241.101562 374.621094 240.089844 374.917969 239.210938 374.210938 C 238.65625 373.753906 238.175781 373.199219 237.734375 372.644531 C 235.546875 369.875 233.332031 367.117188 231.214844 364.289062 C 227.808594 359.714844 224.070312 355.410156 220.25 351.191406 C 217.738281 348.40625 215.222656 345.621094 212.753906 342.792969 C 209.089844 338.613281 205.269531 334.578125 201.335938 330.65625 C 196.632812 325.96875 191.976562 321.25 187.332031 316.503906 C 185.414062 314.542969 183.625 312.46875 182.089844 310.179688 C 181.804688 309.769531 181.523438 309.339844 181.324219 308.886719 C 181.011719 308.175781 181.605469 307.351562 182.375 307.394531 C 182.785156 307.421875 183.226562 307.566406 183.609375 307.734375 C 194.816406 312.910156 205.113281 319.472656 214.371094 327.644531 C 217.566406 330.472656 220.4375 333.613281 223.164062 336.894531 C 224.085938 338.003906 225.007812 339.097656 225.933594 340.175781 C 226.8125 339.851562 226.96875 339.082031 227.28125 338.472656 C 231.398438 330.371094 235.363281 322.203125 238.742188 313.761719 C 241.851562 306.003906 244.835938 298.1875 247.179688 290.144531 C 247.789062 288.070312 248.285156 285.964844 248.570312 283.820312 C 248.8125 282.03125 248.839844 280.238281 248.472656 278.433594 C 247.988281 276.148438 246.824219 274.300781 245.078125 272.808594 C 244.464844 272.28125 243.8125 271.84375 243.058594 271.558594 C 239.949219 270.40625 236.824219 270.535156 233.742188 271.628906 C 232.480469 272.082031 231.628906 273.09375 230.929688 274.230469 C 230.222656 275.410156 229.679688 276.660156 229.242188 277.964844 C 228.503906 280.15625 227.808594 282.34375 227.066406 284.53125 C 226.8125 285.285156 226.570312 286.050781 226.214844 286.75 C 225.632812 287.898438 224.511719 288.097656 223.546875 287.230469 C 223.0625 286.804688 222.679688 286.265625 222.296875 285.753906 C 221.457031 284.660156 220.691406 283.535156 219.824219 282.472656 C 217.59375 279.726562 214.785156 277.765625 211.574219 276.332031 C 208.777344 275.082031 205.976562 275.210938 203.167969 276.246094 C 201.703125 276.785156 200.765625 277.78125 200.253906 279.230469 C 199.429688 281.5625 199.542969 283.921875 200.054688 286.277344 C 200.695312 289.191406 201.972656 291.863281 203.535156 294.394531 C 204.742188 296.367188 206.164062 298.1875 207.695312 299.921875 C 208.789062 301.171875 209.910156 302.394531 211.003906 303.628906 C 214.03125 307.027344 216.886719 310.550781 219.441406 314.328125 C 220.40625 315.765625 221.457031 317.144531 222.464844 318.550781 C 222.738281 318.933594 222.820312 319.332031 222.496094 319.730469 C 222.167969 320.128906 221.585938 320.242188 221.117188 320.070312 C 220.691406 319.898438 220.421875 319.558594 220.179688 319.21875 C 219.46875 318.222656 218.746094 317.226562 218.0625 316.207031 C 215.179688 311.871094 211.871094 307.878906 208.40625 304 C 206.816406 302.222656 205.226562 300.445312 203.777344 298.570312 C 201.105469 295.117188 199.046875 291.339844 197.996094 287.0625 C 197.441406 284.789062 197.273438 282.511719 197.710938 280.199219 C 198.335938 276.929688 200.125 274.726562 203.40625 273.832031 C 206.660156 272.9375 209.785156 273.0625 212.894531 274.5 C 216.914062 276.375 220.207031 279.074219 222.808594 282.65625 C 223.304688 283.335938 223.675781 284.132812 224.371094 284.632812 C 224.851562 284.472656 224.910156 284.105469 225.023438 283.765625 C 225.71875 281.648438 226.414062 279.515625 227.140625 277.398438 C 227.621094 275.960938 228.21875 274.570312 228.984375 273.25 C 230.363281 270.863281 232.378906 269.414062 235.136719 268.914062 C 237.066406 268.574219 238.996094 268.433594 240.945312 268.714844 C 245.714844 269.425781 249.378906 272.792969 250.558594 277.496094 C 251.125 279.785156 251.085938 282.074219 250.757812 284.375 C 250.332031 287.457031 249.492188 290.441406 248.542969 293.398438 C 244.464844 306.046875 239.621094 318.378906 233.800781 330.316406 C 232.222656 333.554688 230.617188 336.78125 229 340.007812 C 228.617188 340.773438 228.160156 341.527344 227.609375 342.195312 C 226.8125 343.160156 225.902344 343.175781 224.980469 342.335938 C 224.609375 341.996094 224.285156 341.597656 223.972656 341.214844 C 223.089844 340.164062 222.195312 339.125 221.332031 338.058594 C 217.070312 332.832031 212.15625 328.296875 206.789062 324.21875 C 200.453125 319.402344 193.847656 315.027344 186.59375 311.714844 C 186.59375 311.730469 186.519531 311.8125 186.519531 311.8125 Z M 340.714844 121.515625 C 340.714844 121.460938 340.726562 121.390625 340.699219 121.359375 C 340.5 121.160156 340.855469 121.105469 340.671875 121.316406 C 340.640625 121.347656 340.742188 121.488281 340.769531 121.574219 C 340.132812 121.175781 339.664062 121.628906 339.195312 121.929688 C 335.558594 124.144531 332.050781 126.53125 328.597656 129.019531 C 323.089844 132.984375 317.917969 137.347656 313.160156 142.207031 C 311.144531 144.265625 309.253906 146.453125 307.550781 148.785156 C 306.996094 149.539062 306.542969 150.363281 306.074219 151.171875 C 305.988281 151.328125 306.015625 151.597656 306.074219 151.785156 C 306.171875 152.039062 306.429688 151.953125 306.628906 151.898438 C 307.734375 151.554688 308.714844 150.929688 309.679688 150.304688 C 312.335938 148.558594 314.835938 146.625 317.25 144.566406 C 321.3125 141.097656 325.019531 137.261719 328.699219 133.394531 C 332.589844 129.289062 336.621094 125.367188 340.714844 121.515625 Z M 289.144531 134.292969 C 294.203125 134.078125 299.753906 132.855469 305.09375 130.78125 C 311.1875 128.421875 316.015625 124.429688 319.75 119.085938 C 321.808594 116.144531 322.546875 112.976562 321.695312 109.453125 C 321.085938 106.9375 320.503906 104.394531 320.035156 101.851562 C 319.425781 98.597656 319.113281 95.285156 317.761719 92.203125 C 317.675781 92.003906 317.675781 91.777344 317.621094 91.5625 C 316.824219 88.335938 316.386719 85.054688 315.929688 81.773438 C 315.335938 77.566406 313.984375 73.644531 311.5 70.175781 C 308.289062 65.699219 304.015625 63.085938 298.417969 62.859375 C 297.128906 62.800781 295.835938 62.660156 294.542969 62.476562 C 289.316406 61.695312 285.808594 57.289062 287.171875 51.617188 C 287.441406 50.496094 287.683594 49.375 288.039062 48.265625 C 288.691406 46.234375 287.925781 44.753906 286.347656 43.5625 C 285.113281 42.625 283.691406 42.125 282.199219 41.800781 C 280.511719 41.429688 278.804688 41.144531 277.101562 40.847656 C 276.164062 40.675781 275.953125 40.847656 275.796875 41.785156 C 275.3125 44.699219 274.800781 47.613281 274.375 50.539062 C 273.636719 55.667969 272.96875 60.828125 272.230469 65.957031 C 271.363281 71.96875 269.945312 77.835938 267.175781 83.308594 C 266.066406 85.496094 265.199219 87.78125 264.261719 90.054688 C 263.652344 91.519531 263.324219 93.082031 262.898438 94.601562 C 262.390625 96.464844 262.941406 97.859375 264.535156 98.878906 C 265.5 99.503906 266.492188 100.089844 267.488281 100.671875 C 268.550781 101.28125 269.632812 101.863281 270.695312 102.476562 C 272.984375 103.769531 274.320312 105.742188 274.773438 108.300781 C 275.113281 110.21875 275.425781 112.136719 275.667969 114.070312 C 276.136719 117.792969 276.535156 121.515625 276.960938 125.238281 C 277.117188 126.53125 277.371094 127.796875 277.839844 129.019531 C 278.722656 131.320312 280.296875 132.882812 282.683594 133.582031 C 284.574219 134.121094 286.503906 134.304688 289.144531 134.292969 Z M 151.996094 135.726562 C 151.96875 136.308594 152.195312 136.691406 152.4375 137.046875 C 153.074219 137.972656 153.96875 138.570312 154.992188 138.964844 C 157.179688 139.820312 159.453125 140.132812 161.78125 139.917969 C 163.386719 139.777344 164.679688 139.09375 165.402344 137.574219 C 165.660156 137.046875 165.957031 136.566406 166.183594 136.039062 C 168.269531 131.265625 169.792969 126.332031 170.585938 121.175781 C 170.914062 119.117188 171.097656 117.027344 171.808594 115.039062 C 172.730469 112.480469 174.277344 110.503906 176.863281 109.46875 C 177.402344 109.253906 177.941406 109.039062 178.441406 108.742188 C 179.066406 108.386719 179.71875 108.03125 180.230469 107.546875 C 182.34375 105.515625 182.074219 105.347656 180.472656 103.511719 C 179.234375 102.105469 177.929688 100.769531 176.578125 99.464844 C 174.5625 97.515625 173.113281 95.230469 172.320312 92.542969 C 171.664062 90.339844 171.113281 88.09375 170.542969 85.863281 C 169.25 80.761719 167.875 75.691406 165.855469 70.816406 C 164.890625 68.472656 163.699219 66.269531 162.234375 64.195312 C 162.078125 63.96875 161.867188 63.769531 161.640625 63.597656 C 161.582031 63.554688 161.3125 63.640625 161.296875 63.695312 C 161.214844 64.109375 161.113281 64.535156 161.113281 64.949219 C 161.058594 67.546875 160.785156 70.121094 160.332031 72.679688 C 159.480469 77.382812 157.917969 81.871094 156.101562 86.261719 C 154.9375 89.0625 153.898438 91.890625 153.019531 94.789062 C 151.441406 99.988281 151.085938 105.246094 152.28125 110.574219 C 152.691406 112.410156 153.105469 114.226562 153.457031 116.074219 C 154.113281 119.484375 154.496094 122.894531 154.183594 126.390625 C 153.941406 128.992188 153.417969 131.507812 152.550781 133.964844 C 152.351562 134.605469 152.167969 135.230469 151.996094 135.726562 Z M 172.53125 239.175781 C 171.78125 239.289062 171.507812 239.855469 171.15625 240.28125 C 168.355469 243.636719 166.324219 247.429688 164.777344 251.507812 C 162.816406 256.707031 162.476562 262.039062 163.457031 267.464844 C 164.492188 273.148438 166.59375 278.40625 169.917969 283.125 C 171.949219 286.007812 174.121094 288.792969 176.238281 291.621094 C 176.367188 291.792969 176.507812 291.964844 176.664062 292.121094 C 176.765625 292.203125 176.90625 292.304688 177.035156 292.304688 C 177.304688 292.320312 177.390625 292.089844 177.402344 291.878906 C 177.703125 288.652344 178.128906 285.414062 178.242188 282.1875 C 178.511719 273.902344 178.554688 265.605469 177.53125 257.347656 C 176.792969 251.367188 175.300781 245.609375 173 240.054688 C 172.871094 239.742188 172.6875 239.457031 172.53125 239.175781 Z M 280.539062 234.1875 C 279.742188 236.417969 279.261719 238.734375 278.691406 241.035156 C 276.960938 248.097656 275.652344 255.246094 274.445312 262.40625 C 273.851562 265.960938 273.28125 269.511719 272.726562 273.0625 C 272.644531 273.5625 272.445312 274.117188 272.839844 274.65625 C 275.511719 271.914062 280.652344 265.164062 282.328125 262.265625 C 283.265625 260.644531 284.046875 258.941406 284.644531 257.164062 C 285.550781 254.492188 286.132812 251.722656 285.9375 248.894531 C 285.59375 243.847656 283.988281 239.1875 281.363281 234.867188 C 281.191406 234.554688 281.007812 234.257812 280.539062 234.1875 Z M 320.6875 88.195312 C 320.546875 89.957031 320.945312 92.03125 321.128906 94.105469 C 321.300781 95.980469 322.847656 97.019531 324.664062 96.578125 C 325.660156 96.335938 326.511719 95.796875 327.277344 95.113281 C 328.257812 94.234375 329.054688 93.210938 329.707031 92.089844 C 331.210938 89.53125 332.347656 86.800781 333.042969 83.917969 C 333.796875 80.777344 333.894531 77.636719 332.875 74.523438 C 331.792969 71.257812 330.003906 70.660156 327.164062 72.605469 C 324.308594 74.566406 322.492188 77.28125 321.570312 80.578125 C 320.914062 82.953125 320.632812 85.382812 320.6875 88.195312 Z M 320.6875 88.195312 " fill-opacity="1" fill-rule="nonzero"/></g></svg>